# xmcd
#
# Track frame offsets:
#	150
#	13077
#	25672
#	39240
#	51947
#	64825
#	80355
#	92025
#	104332
#	117385
#	127367
#	142485
#	155312
#	168410
#	180692
#	191262
#	205330
#	215572
#	228057
#	244805
#
# Disc length: 3440 seconds
#
# Revision: 4
# Processed by: cddbd v1.5.2PL0 Copyright (c) Steve Scherf et al.
# Submitted via: audiograbber 1.83.01
#
DISCID=1b0d6e14
DTITLE=Merle Haggard - The Capitol Collectors Series
DYEAR=1990
DGENRE=Oldies
TTITLE0=Swinging Doors
TTITLE1=The Bottle Let Me Down
TTITLE2=I'm A Lonesome Fugitive
TTITLE3=Sing Me Back Home
TTITLE4=I Take A Lot Of Pride In What I Am
TTITLE5=Hungry Eyes
TTITLE6=Workin' Man Blues
TTITLE7=Okie From Muskogee
TTITLE8=The Fightin' Side Of Me
TTITLE9=Soldier's Last Letter
TTITLE10=Daddy Frank (The Guitar Man)
TTITLE11=I Wonder If They Ever Think Of Me
TTITLE12=The Emptiest Arms In The World
TTITLE13=Things Aren't Funny Anymore
TTITLE14=Old Man From The Mountain
TTITLE15=Always Wanting You
TTITLE16=Movin' On
TTITLE17=The Roots Of My Raising
TTITLE18=Here Comes The Freedom Train
TTITLE19=Cherokee Maiden
EXTD=
EXTT0=
EXTT1=
EXTT2=
EXTT3=
EXTT4=
EXTT5=
EXTT6=
EXTT7=
EXTT8=
EXTT9=
EXTT10=
EXTT11=
EXTT12=
EXTT13=
EXTT14=
EXTT15=
EXTT16=
EXTT17=
EXTT18=
EXTT19=
PLAYORDER=
